<svg version="1.1" id="Layer_1" xmlns="http://www.w3.org/2000/svg" xmlns:xlink="http://www.w3.org/1999/xlink" x="0px" y="0px"
	 width="100%" viewBox="0 0 120 120" enable-background="new 0 0 120 120" xml:space="preserve">
<path fill="none" opacity="1.000000" stroke="none" 
	d="
M121.000000,4.999999 
	C121.000000,43.666668 121.000000,82.333336 121.000000,121.000000 
	C81.000000,121.000000 41.000000,121.000000 1.000000,121.000000 
	C1.000000,81.000000 1.000000,41.000000 1.000000,1.000000 
	C39.666668,1.000000 78.333351,0.990016 116.999947,1.042105 
	C118.333725,1.043902 119.666664,1.666667 120.695984,2.802893 
	C119.783791,3.458872 119.014839,2.995636 118.590866,3.211124 
	C106.730644,9.239085 94.845642,15.223318 83.095810,21.461641 
	C75.594322,25.444395 72.014053,35.343578 61.473038,35.083668 
	C55.990566,34.948479 53.749176,40.536896 50.317638,43.928764 
	C38.505058,55.604794 26.587776,67.174873 14.720984,78.796135 
	C14.155301,79.350113 13.291394,79.977699 13.243117,80.621742 
	C12.874972,85.532951 12.927379,85.536880 8.803025,84.170364 
	C7.230343,86.020203 5.704755,87.814651 3.279598,90.667198 
	C13.156952,99.504295 23.025469,108.333488 32.625530,116.922493 
	C32.821487,114.778740 38.433819,113.997765 36.366234,109.325859 
	C36.292194,109.158562 38.438995,107.753807 39.687908,107.328667 
	C40.888821,106.919868 42.675030,107.513023 43.486320,106.822556 
	C45.322376,105.259979 46.576302,103.035355 48.312428,101.329849 
	C60.153778,89.697273 72.010643,78.079399 83.978882,66.577881 
	C86.769516,63.896076 88.153885,61.058537 88.164497,57.087685 
	C88.170181,54.964790 89.472939,52.530350 90.876549,50.789944 
	C94.073891,46.825424 98.453995,43.650639 100.992081,39.351254 
	C107.090538,29.020775 112.370171,18.208637 118.090263,7.650473 
	C118.680382,6.561224 120.012291,5.873847 121.000000,4.999999 
z"/>
<path fill="#FFFFFF" opacity="1.000000" stroke="none" 
	d="
M121.000000,4.666666 
	C120.012291,5.873847 118.680382,6.561224 118.090263,7.650473 
	C112.370171,18.208637 107.090538,29.020775 100.992081,39.351254 
	C98.453995,43.650639 94.073891,46.825424 90.876549,50.789944 
	C89.472939,52.530350 88.170181,54.964790 88.164497,57.087685 
	C88.153885,61.058537 86.769516,63.896076 83.978882,66.577881 
	C72.010643,78.079399 60.153778,89.697273 48.312428,101.329849 
	C46.576302,103.035355 45.322376,105.259979 43.486320,106.822556 
	C42.675030,107.513023 40.888821,106.919868 39.687908,107.328667 
	C38.438995,107.753807 36.292194,109.158562 36.366234,109.325859 
	C38.433819,113.997765 32.821487,114.778740 32.625530,116.922493 
	C23.025469,108.333488 13.156952,99.504295 3.279598,90.667198 
	C5.704755,87.814651 7.230343,86.020203 8.803025,84.170364 
	C12.927379,85.536880 12.874972,85.532951 13.243117,80.621742 
	C13.291394,79.977699 14.155301,79.350113 14.720984,78.796135 
	C26.587776,67.174873 38.505058,55.604794 50.317638,43.928764 
	C53.749176,40.536896 55.990566,34.948479 61.473038,35.083668 
	C72.014053,35.343578 75.594322,25.444395 83.095810,21.461641 
	C94.845642,15.223318 106.730644,9.239085 118.590866,3.211124 
	C119.014839,2.995636 119.783791,3.458872 120.695984,3.302893 
	C121.000000,3.444444 121.000000,3.888889 121.000000,4.666666 
z"/>
</svg>