<svg version="1.1" id="Layer_1" xmlns="http://www.w3.org/2000/svg" xmlns:xlink="http://www.w3.org/1999/xlink" x="0px" y="0px"
	 width="100%" viewBox="0 0 120 120" enable-background="new 0 0 120 120" xml:space="preserve">
<path fill="none" opacity="1.000000" stroke="none" 
	d="
M74.000000,121.000000 
	C50.333332,121.000000 27.166449,120.954521 4.000315,121.065620 
	C1.499177,121.077614 0.929698,120.499847 0.935778,117.999847 
	C1.028191,80.000069 1.028191,41.999931 0.935778,4.000156 
	C0.929698,1.500155 1.500155,0.929698 4.000156,0.935778 
	C41.999931,1.028191 80.000069,1.028191 117.999847,0.935778 
	C120.499847,0.929698 121.070305,1.500155 121.064224,4.000156 
	C120.971809,41.999931 120.971809,80.000069 121.064224,117.999847 
	C121.070297,120.499847 120.502670,121.091019 117.999359,121.067253 
	C103.500671,120.929596 89.000000,121.000000 74.000000,121.000000 
z"/>
<path fill="#FFFFFF" opacity="1.000000" stroke="none" 
	d="
M101.221390,6.722531 
	C106.283119,14.675348 108.407310,23.488634 111.992134,31.679834 
	C112.757492,33.428658 112.857506,35.737423 114.085983,36.966995 
	C118.720825,41.605938 115.895538,42.930801 111.472786,44.263649 
	C110.453987,44.570679 109.326080,44.860107 108.282730,45.263744 
	C105.744537,46.245682 102.991928,48.118305 100.617744,47.749908 
	C96.792816,47.156399 99.622749,43.181683 98.528191,40.762573 
	C95.238823,33.492634 92.874825,25.809965 89.776527,18.445353 
	C87.949753,14.103111 87.443436,9.734793 90.550812,6.341047 
	C93.473877,3.148604 97.493706,3.918644 101.221390,6.722531 
z"/>
<path fill="#FFFFFF" opacity="1.000000" stroke="none" 
	d="
M87.756920,42.305626 
	C88.694901,43.274254 89.760521,44.469803 88.327431,44.821934 
	C82.135643,46.343361 77.539001,51.090347 71.344589,53.107590 
	C71.253433,43.864323 64.332756,38.017223 60.970005,30.494072 
	C59.410133,27.004313 56.845066,24.114367 55.606560,20.334776 
	C54.215900,16.090855 55.530220,13.250916 58.791180,11.093330 
	C62.118931,8.891557 65.648285,9.587346 67.951424,12.587852 
	C70.970963,16.521677 73.442863,20.890829 75.990280,25.168055 
	C78.780327,29.852663 81.330132,34.680252 84.114494,39.368401 
	C84.842484,40.594151 85.752403,41.918552 87.756920,42.305626 
z"/>
<path fill="#FFFFFF" opacity="1.000000" stroke="none" 
	d="
M58.250816,62.249275 
	C56.597641,64.100937 55.194820,65.702614 54.219551,66.816132 
	C47.890778,58.283482 40.029354,52.096085 33.362759,44.821976 
	C31.827208,43.146488 30.112684,41.706337 28.832495,39.675209 
	C26.450529,35.896019 26.416555,32.721592 29.776726,29.767546 
	C32.859039,27.057770 37.600056,27.293640 40.857639,30.341986 
	C47.396591,36.460938 53.906628,42.613159 60.312283,48.870724 
	C62.217842,50.732227 63.985897,52.544037 67.532524,52.081978 
	C64.816254,56.309994 61.345528,58.878788 58.250816,62.249275 
z"/>
<path fill="#FFFFFF" opacity="1.000000" stroke="none" 
	d="
M30.328033,81.747688 
	C25.727221,78.689125 21.565048,75.609627 17.083759,73.099960 
	C14.293035,71.537056 12.759011,68.999443 11.402651,66.595795 
	C10.319117,64.675629 10.467662,62.011078 12.549498,59.778679 
	C15.013037,57.136971 17.600838,56.242706 20.904861,57.396080 
	C27.361052,59.649822 32.399368,64.315727 38.216072,67.653748 
	C43.026749,70.414436 46.848709,75.056381 53.163578,75.331055 
	C50.978336,81.078560 46.389534,85.012230 43.913059,90.247177 
	C43.280518,91.584290 41.521069,91.400574 41.134914,90.388290 
	C39.249775,85.446442 34.076195,84.818443 30.328033,81.747688 
z"/>
<path fill="#FFFFFF" opacity="1.000000" stroke="none" 
	d="
M5.146963,96.430992 
	C5.336210,86.889359 9.684161,86.597710 17.962105,88.711296 
	C25.931486,90.746094 33.508896,94.420250 41.119385,97.697258 
	C43.619495,98.773788 46.099277,98.985291 49.120705,99.105667 
	C46.577343,105.210213 44.158501,111.015892 41.593349,117.172737 
	C38.246826,111.989227 32.338562,111.901024 27.703571,109.471306 
	C23.087584,107.051552 17.852081,105.832130 12.937592,103.956985 
	C9.457400,102.629112 7.029410,100.050415 5.146963,96.430992 
z"/>
</svg>