<svg version="1.1" id="Layer_1" xmlns="http://www.w3.org/2000/svg" xmlns:xlink="http://www.w3.org/1999/xlink" x="0px" y="0px"
	 width="100%" viewBox="0 0 512 512" enable-background="new 0 0 512 512" xml:space="preserve">
<path fill="none" opacity="1.000000" stroke="none" 
	d="
M335.000000,513.000000 
	C224.860092,513.000000 115.220161,512.980774 5.580345,513.085022 
	C1.982573,513.088440 0.891044,512.515564 0.893936,508.582367 
	C1.017283,340.790070 1.016357,172.997665 0.894130,5.205371 
	C0.891416,1.479765 1.806103,0.910793 5.292685,0.912866 
	C173.085022,1.012613 340.877411,1.010903 508.669769,0.922317 
	C512.048279,0.920534 513.116760,1.335134 513.113770,5.167813 
	C512.981934,173.126724 512.985474,341.085754 513.099915,509.044708 
	C513.102295,512.556885 512.285767,513.097534 508.957001,513.090332 
	C451.138184,512.965027 393.319061,513.000000 335.000000,513.000000 
z"/>
<path fill="#FFFFFF" opacity="1.000000" stroke="none" 
	d="
M161.000000,313.015137 
	C161.268158,320.492920 160.839996,327.515106 164.772293,333.981720 
	C165.886307,335.813690 164.866806,338.881653 165.029144,341.369507 
	C165.223877,344.353577 164.204498,347.809570 168.439377,349.295013 
	C169.527969,349.676849 169.544586,352.199951 168.440109,352.700470 
	C165.870316,353.865051 166.680634,356.149078 167.131302,357.332520 
	C170.623047,366.501404 170.428238,376.367371 172.455719,385.814850 
	C174.509567,395.385132 175.341873,405.409668 177.228287,415.114410 
	C177.886642,418.501434 175.866714,423.214844 180.668091,425.534210 
	C181.374191,425.875305 181.423080,427.836487 180.260498,428.973206 
	C178.833038,430.368866 179.657883,432.530334 180.153732,433.533997 
	C182.631119,438.548309 178.306778,439.181793 175.784622,440.931702 
	C175.000656,441.475647 172.480026,440.939667 173.250671,442.016754 
	C174.851608,444.254181 172.283615,447.814453 175.346161,448.867889 
	C178.019669,449.787506 177.336807,452.062714 176.587372,452.537659 
	C173.836365,454.281006 176.213242,455.460419 176.326431,457.063721 
	C176.671356,461.949341 178.175018,463.869263 183.137054,462.056091 
	C184.626831,461.511658 185.024536,462.699432 185.029556,464.085724 
	C185.034821,465.535187 185.073059,466.914398 185.650879,468.417084 
	C186.766266,471.317871 185.563522,472.529053 182.205276,473.218048 
	C178.925079,473.890991 174.292114,471.801575 172.341537,476.731781 
	C172.182831,477.132935 170.484665,476.985443 169.501328,476.990143 
	C163.072433,477.020935 156.644806,476.838715 150.255112,477.945587 
	C148.333160,478.278534 146.176514,478.557648 145.141953,479.978424 
	C144.000412,481.546021 142.611145,481.204498 141.709045,480.866211 
	C136.234741,478.813232 131.259247,482.191315 126.013924,482.491394 
	C124.965279,482.551331 122.550583,485.678284 120.080437,484.923645 
	C113.641769,482.956635 107.593109,485.826172 101.377304,486.248016 
	C97.668823,486.499695 94.341675,489.783569 89.998283,488.113678 
	C88.824600,487.662445 88.155998,487.312958 87.624664,486.233704 
	C84.557716,480.004425 86.093536,477.323761 92.974152,476.990479 
	C93.610893,476.959625 94.242340,476.819458 94.871864,476.730682 
	C93.507248,469.015259 92.174423,461.479523 90.820923,453.826904 
	C88.289375,454.173981 89.438385,458.663940 86.371758,456.928925 
	C84.401886,455.814392 82.449585,454.249817 82.057625,451.855682 
	C79.963257,439.062988 77.758858,426.278351 76.172722,413.419373 
	C75.777428,410.214722 72.192856,408.899353 72.938789,405.350342 
	C74.537231,397.745331 72.602379,390.091949 70.571587,383.100403 
	C69.026352,377.780548 70.171967,372.340820 68.053436,367.316040 
	C67.644356,366.345764 68.275818,364.929596 66.387543,364.967529 
	C64.454239,365.006378 64.644669,363.084961 65.092529,362.482880 
	C69.274666,356.860840 64.032951,351.644165 64.385643,346.160400 
	C64.493797,344.478882 65.356949,340.466858 61.114143,340.351990 
	C61.064785,340.350647 60.854626,339.344940 61.032043,338.947662 
	C63.950844,332.411743 59.935528,326.266724 59.995407,319.900055 
	C60.008919,318.462982 60.430286,316.881226 57.950390,316.885864 
	C56.577011,316.888428 56.685295,314.985931 57.079578,314.547607 
	C61.619038,309.500946 56.645206,304.594940 56.641750,299.648285 
	C56.638847,295.509827 56.072170,291.161835 56.035816,286.907532 
	C55.933315,274.912292 55.862541,262.913544 56.040340,250.920044 
	C56.203884,239.887878 52.764313,229.375870 51.759830,218.514984 
	C51.051640,210.857712 48.665798,203.615662 49.680889,195.485138 
	C51.245655,182.951904 52.574757,170.504776 56.742664,158.504669 
	C57.318344,156.847214 57.289959,153.386154 57.404949,153.392105 
	C62.076263,153.633972 64.440262,148.598526 69.423653,148.775970 
	C76.320839,149.021576 83.179771,148.015884 89.934921,145.367554 
	C93.982384,143.780777 99.291039,144.419495 103.703789,145.457199 
	C104.798882,145.714737 108.103951,148.244980 109.159332,151.143234 
	C110.181351,153.949860 111.616440,156.921112 115.535454,157.045975 
	C118.097099,157.127594 116.690598,159.276367 116.964798,160.486679 
	C117.400352,162.409286 115.698746,165.242645 119.935959,165.194138 
	C121.936752,165.171234 121.202461,167.736603 120.582527,168.764450 
	C119.354706,170.800156 121.224548,172.732300 121.740067,172.714752 
	C126.442200,172.554550 124.752792,175.924988 124.985428,178.173157 
	C125.265831,180.882828 124.008621,184.158096 128.287018,185.133347 
	C129.609940,185.434906 129.029785,187.172211 128.899918,188.241638 
	C128.465088,191.822235 128.339783,195.192490 132.295563,197.095886 
	C133.425385,197.639542 132.920944,198.826538 132.990311,199.747040 
	C133.263489,203.371933 131.995972,207.574448 136.743576,209.494675 
	C136.916260,209.564514 137.080124,210.210129 136.959839,210.368576 
	C134.470367,213.648087 136.911362,216.983749 136.710373,220.149948 
	C136.246536,227.456940 139.456161,233.655396 141.073776,240.324295 
	C148.408600,241.778534 143.606430,247.616196 145.023590,251.204605 
	C145.815292,253.209259 145.363968,255.947067 147.937149,256.939331 
	C149.028625,257.360229 148.965546,258.040924 148.994064,258.837585 
	C149.335434,268.377747 153.774017,276.714539 156.679886,285.515350 
	C157.703491,288.615448 155.427002,291.998901 156.910400,295.414276 
	C158.071152,298.086792 157.126053,303.098511 158.249069,303.752350 
	C162.388412,306.162323 160.530487,309.543335 161.000000,313.015137 
z"/>
<path fill="#FFFFFF" opacity="1.000000" stroke="none" 
	d="
M201.000000,90.141151 
	C201.066299,87.375366 200.109970,84.772438 204.255264,84.618568 
	C205.261169,84.581223 206.018723,80.902298 206.839188,78.928940 
	C209.388489,72.797478 212.321228,68.050507 219.792801,66.564163 
	C222.294250,66.066536 224.440201,65.833313 226.972473,65.856201 
	C232.044617,65.902039 237.092514,66.304993 242.252533,65.163971 
	C252.982574,62.791279 258.395813,65.705284 263.936890,76.290787 
	C265.829132,79.905678 270.624878,82.187256 269.266785,87.460869 
	C269.072388,88.215683 270.360687,89.037636 271.479980,88.988892 
	C272.933167,88.925613 273.389374,90.019539 272.941895,90.895416 
	C269.818542,97.008743 274.812775,101.727501 275.720306,107.120941 
	C277.208466,115.965157 281.294556,124.086693 281.368500,133.532593 
	C281.423798,140.593140 281.023956,147.996735 283.019684,155.019318 
	C285.570679,163.995743 287.342041,173.137573 289.202362,182.267471 
	C289.387817,183.177673 289.542603,185.079163 291.444794,184.991226 
	C293.363159,184.902542 293.357239,186.519318 292.925659,187.355957 
	C289.944794,193.134766 294.298615,198.326340 294.528412,203.854126 
	C294.587616,205.278412 297.656647,208.085403 296.926331,210.784973 
	C293.401398,223.814285 297.518158,236.575882 298.022400,249.453445 
	C298.202942,254.063660 298.531433,258.781891 298.377228,263.275879 
	C298.069489,272.246063 302.419495,280.613281 300.426758,289.913513 
	C299.571533,293.904663 300.328064,299.065979 301.194794,303.507935 
	C301.839691,306.812836 301.781982,310.031403 302.025940,313.292664 
	C302.141754,314.840424 301.004730,317.023926 304.229218,317.174927 
	C305.575439,317.237915 305.334656,319.512177 304.860321,320.147919 
	C301.193604,325.062561 303.267456,330.270782 303.715240,335.432068 
	C304.226105,341.320557 303.909943,347.262421 304.951172,353.128693 
	C305.266479,354.905304 305.441315,356.932159 304.891815,358.581696 
	C304.152588,360.800690 307.112000,363.216492 304.661743,364.900787 
	C302.657806,366.278290 300.018372,366.166412 298.000000,366.049500 
	C298.000000,369.141602 297.774292,372.028381 298.070190,374.860657 
	C298.314484,377.199219 296.301086,380.533661 300.652496,381.547821 
	C301.278870,381.693817 301.656281,384.272217 300.227936,384.863647 
	C298.285217,385.668030 298.836029,387.176727 299.154785,388.142059 
	C299.704346,389.806396 301.439606,388.788208 302.646118,388.969788 
	C303.620911,389.116516 304.479889,388.704468 305.420502,388.259064 
	C306.627411,387.687469 308.023193,388.673950 308.719452,389.591888 
	C309.333740,390.401764 309.533356,392.101746 308.472809,392.758484 
	C306.041443,394.264008 306.256775,395.462524 308.300964,397.096283 
	C309.460693,398.023163 309.454620,399.703064 308.550842,400.568359 
	C307.673798,401.408051 305.716614,401.630768 305.147736,400.234161 
	C304.353485,398.284210 302.832214,398.839996 301.862640,399.081146 
	C296.814514,400.336670 291.663696,399.541687 286.619385,400.090088 
	C278.129730,401.013031 269.663757,401.983826 261.108673,402.052856 
	C259.491150,402.065887 257.651703,401.051544 256.573364,404.220764 
	C255.994980,405.920654 251.426636,405.878723 249.138031,404.127869 
	C247.402130,402.799774 246.269135,402.348114 245.002548,404.200623 
	C244.253860,405.295654 243.221329,405.141052 242.383667,404.947479 
	C232.044250,402.558289 221.890198,405.254211 211.673630,406.019836 
	C209.062088,406.215546 207.757553,405.817139 207.884140,402.691162 
	C207.971115,400.543213 209.653610,397.317810 205.397110,396.512939 
	C204.614395,396.364960 204.591522,394.205322 205.394745,393.457306 
	C206.367722,392.551270 207.726562,392.817200 208.948822,393.613678 
	C212.170197,395.712891 215.874542,393.856812 215.986862,390.085632 
	C216.148911,384.644623 214.401413,379.323456 214.970154,373.838165 
	C215.239655,371.239044 213.053879,371.830322 211.851746,372.065125 
	C206.438263,373.122467 206.037933,370.425934 205.855270,365.846863 
	C205.233063,350.248657 204.453690,334.627106 202.825882,319.109772 
	C201.867676,309.975555 201.300964,300.877594 200.913773,291.719116 
	C200.469589,281.212738 199.718658,270.689178 198.757599,260.237335 
	C197.921066,251.139496 197.416260,242.059250 196.815475,232.961197 
	C196.513138,228.382568 195.937134,223.798370 196.047485,219.199615 
	C196.111267,216.541290 191.281204,216.727814 192.944473,213.237549 
	C193.622177,211.815399 191.972366,209.520203 194.567413,208.679382 
	C194.766327,208.614929 195.012436,208.075867 194.935455,207.870071 
	C192.426880,201.163696 197.381714,195.283890 197.018372,188.809067 
	C196.691910,182.991333 198.887100,177.344315 197.375351,171.250168 
	C196.808075,168.963409 199.064636,165.266632 199.451447,162.057129 
	C199.690262,160.075546 201.819550,158.103073 197.852661,156.642761 
	C195.859497,155.909012 196.145920,151.271118 197.514893,149.520569 
	C200.314957,145.940002 198.817703,142.514236 198.461777,139.016830 
	C197.823730,132.747543 198.278641,126.449554 197.878250,120.199562 
	C197.232361,110.117226 202.736954,100.759399 201.000000,90.141151 
z"/>
<path fill="#FFFFFF" opacity="1.000000" stroke="none" 
	d="
M441.000000,171.000107 
	C441.000000,221.319519 440.945557,271.139160 441.101257,320.958130 
	C441.114014,325.035004 440.270538,326.821564 436.037170,326.011597 
	C433.698425,325.564117 432.859436,326.502930 432.943939,328.965881 
	C433.126648,334.291473 433.190399,339.637054 432.928680,344.956024 
	C432.771484,348.151794 433.628052,349.636444 436.961792,348.998230 
	C442.117035,348.011353 440.799316,351.715302 441.032959,354.460358 
	C441.291229,357.494659 441.046539,359.294281 437.026062,359.084106 
	C407.857239,357.559174 378.818970,362.231781 349.636871,361.056244 
	C340.653046,360.694336 340.797333,361.001984 340.909149,352.132050 
	C340.944824,349.300293 341.992859,348.577393 344.365265,349.022003 
	C348.536591,349.803741 349.280518,347.780090 349.072571,344.124451 
	C348.802155,339.370941 348.803040,334.589691 349.957672,329.871704 
	C350.636139,327.099457 349.716431,325.307312 346.390503,326.002655 
	C342.428375,326.830963 342.091339,324.845673 341.884247,321.395782 
	C340.829041,303.818207 340.282593,286.194885 341.160553,268.654053 
	C342.866608,234.569031 341.724121,200.490784 341.750366,166.416687 
	C341.756500,158.420059 344.307068,151.075806 344.699585,143.387848 
	C345.339661,130.851608 349.935059,118.907021 349.166107,106.120094 
	C348.476196,94.647659 349.678009,83.118835 350.959015,71.664803 
	C351.058807,70.772552 351.159912,69.879700 350.276855,68.987701 
	C348.731873,67.427101 347.483978,65.752220 351.130768,64.841560 
	C352.277283,64.555252 352.835876,62.736507 353.029236,61.202209 
	C353.835663,54.801704 356.012115,48.657551 357.467255,42.423580 
	C358.399780,38.428387 361.318054,34.675392 361.037262,30.057184 
	C364.281158,29.868580 365.333099,26.811556 366.652069,24.878426 
	C370.413696,19.365252 375.169922,21.663078 380.031982,21.858879 
	C386.232117,22.108562 392.471283,21.283443 398.698029,21.028709 
	C401.292389,20.922575 403.965210,20.582788 406.366241,22.092083 
	C406.906403,22.431635 407.919464,23.015381 408.041473,22.879957 
	C412.779602,17.622061 412.462280,23.484398 414.074615,25.492476 
	C419.002716,31.630259 420.865082,39.353619 424.777924,46.038918 
	C426.157898,48.396725 423.787292,52.804474 428.750641,53.546482 
	C428.920532,53.571880 429.217041,54.942009 428.949463,55.368408 
	C425.759094,60.452652 429.971008,64.971039 429.975891,69.793556 
	C429.977448,71.355309 429.474030,73.227654 432.249237,73.132393 
	C433.190918,73.100067 433.243530,74.549789 432.951294,75.189552 
	C429.996429,81.658058 434.054871,87.980286 433.206055,94.540009 
	C432.294189,101.586617 432.298187,108.937881 433.251068,115.973579 
	C433.876495,120.591461 434.340302,125.383316 436.502930,130.069809 
	C437.996552,133.306564 436.082367,138.511215 437.896301,142.547073 
	C441.949097,151.564240 440.874390,161.084717 441.000000,171.000107 
z"/>
</svg>