<svg version="1.1" id="Layer_1" xmlns="http://www.w3.org/2000/svg" xmlns:xlink="http://www.w3.org/1999/xlink" x="0px" y="0px"
	 width="100%" viewBox="0 0 128 128" enable-background="new 0 0 128 128" xml:space="preserve">
<path fill="none" opacity="1.000000" stroke="none" 
	d="
M80.000000,129.000000 
	C54.333332,129.000000 29.166487,128.957993 4.000279,129.065369 
	C1.499393,129.076019 0.930376,128.499771 0.935936,125.999855 
	C1.026385,85.333397 1.026381,44.666611 0.935937,4.000143 
	C0.930377,1.500242 1.500242,0.930377 4.000143,0.935937 
	C44.666611,1.026383 85.333397,1.026383 125.999855,0.935936 
	C128.499771,0.930377 129.069626,1.500242 129.064072,4.000143 
	C128.973618,44.666611 128.973618,85.333397 129.064072,125.999855 
	C129.069626,128.499771 128.502441,129.089325 125.999405,129.067093 
	C110.833939,128.932419 95.666664,129.000000 80.000000,129.000000 
z"/>
<path fill="#F8FCF8" opacity="1.000000" stroke="none" 
	d="
M11.252276,113.249619 
	C15.106368,109.419838 17.686483,104.541107 21.509447,101.725517 
	C25.229441,98.985771 29.228085,96.233124 31.491547,92.649857 
	C35.308605,86.607086 41.971062,83.712677 45.890148,77.579063 
	C47.735561,74.690887 53.060841,72.278938 55.262619,68.840958 
	C58.086113,64.432190 64.478142,63.353794 65.191719,57.392292 
	C69.578407,57.069969 69.176743,53.908894 68.993881,50.920731 
	C68.835777,48.336945 70.761040,48.891205 72.053543,49.043163 
	C78.857948,49.843147 82.518341,44.396790 84.408165,40.189453 
	C86.192162,36.217735 88.679749,36.380142 90.424149,37.200829 
	C94.852325,39.284149 95.427139,35.963692 97.198822,33.830555 
	C95.919212,32.639050 94.801964,32.696980 93.915749,33.622990 
	C92.393044,35.214043 90.688530,35.899868 89.447708,33.757565 
	C88.493668,32.110405 87.851700,30.277029 90.030388,28.330294 
	C96.507568,22.542686 103.408127,17.336794 110.363220,12.159886 
	C114.818336,8.843796 119.670334,6.420615 124.818451,4.140462 
	C124.867722,6.246609 125.909981,8.310147 123.064529,9.624888 
	C122.030212,10.102796 121.320473,11.994411 121.097473,13.345774 
	C120.784065,15.244949 121.392830,17.431509 118.310104,17.361246 
	C117.968513,17.353458 117.245804,18.138678 117.315872,18.327320 
	C119.081482,23.081038 114.705971,26.550863 112.680466,27.810282 
	C107.250519,31.186502 104.891075,36.851677 100.460571,40.754112 
	C99.965790,41.189919 98.652679,41.286217 98.073143,40.942669 
	C93.568336,38.272228 91.383514,41.819698 89.185616,44.421242 
	C86.029289,48.157230 80.762390,50.281246 80.357872,56.453033 
	C80.305336,57.254486 75.776352,59.855839 73.568954,61.939388 
	C70.946709,64.414528 67.862755,66.665977 68.954178,71.071991 
	C69.083618,71.594521 68.763588,72.681160 68.412216,72.800484 
	C64.592056,74.097786 62.063400,76.582626 60.798084,80.419304 
	C60.701096,80.713409 59.995502,80.917282 59.550056,80.969658 
	C50.585758,82.023735 47.538761,90.642563 41.387199,95.290092 
	C40.772999,95.754128 41.125645,97.474281 40.993229,98.607208 
	C40.889206,99.497253 41.343193,101.110977 39.938560,100.890930 
	C33.812733,99.931221 32.051941,105.655693 28.303181,108.276878 
	C26.125364,109.799637 24.318396,111.771530 24.965063,114.908447 
	C25.156960,115.839317 25.134001,117.216011 23.643808,116.945610 
	C18.226336,115.962570 15.712692,120.209732 13.443470,123.431969 
	C10.823919,127.151634 7.487168,126.044357 5.688951,124.636032 
	C3.975282,123.293938 4.259609,119.817245 6.763335,117.728088 
	C8.288184,116.455719 9.593751,114.920563 11.252276,113.249619 
z"/>
</svg>