<svg version="1.1" id="Layer_1" xmlns="http://www.w3.org/2000/svg" xmlns:xlink="http://www.w3.org/1999/xlink" x="0px" y="0px"
	 width="100%" viewBox="0 0 512 512" enable-background="new 0 0 512 512" xml:space="preserve">
<path fill="none" opacity="1.000000" stroke="none" 
	d="
M352.000000,513.000000 
	C236.194809,513.000000 120.889595,512.981873 5.584486,513.084412 
	C1.994736,513.087585 0.890494,512.528687 0.893407,508.586517 
	C1.017395,340.794220 1.016167,173.001816 0.894980,5.209517 
	C0.892298,1.495342 1.790695,0.909834 5.288538,0.911936 
	C173.080856,1.012788 340.873260,1.010731 508.665619,0.923294 
	C512.032959,0.921539 513.117615,1.319385 513.114563,5.163667 
	C512.981750,173.122574 512.985535,341.081604 513.099426,509.040558 
	C513.101807,512.544250 512.299072,513.099670 508.961121,513.091309 
	C456.807648,512.960938 404.653778,513.000000 352.000000,513.000000 
z"/>
<path fill="#FFFFFF" opacity="1.000000" stroke="none" 
	d="
M204.331451,57.245499 
	C208.975693,53.371513 214.374893,50.877285 217.212097,45.523857 
	C217.451187,45.072735 218.705368,45.173141 219.481689,44.990658 
	C221.779602,44.450512 224.793732,43.334385 224.689880,41.246342 
	C224.451309,36.449341 227.502701,37.779438 230.098511,36.753426 
	C234.007004,35.208546 239.144699,32.695599 240.319000,29.376717 
	C241.687500,25.508982 242.943527,24.751137 246.352020,24.806450 
	C248.613312,24.843149 248.562546,22.046604 249.976242,21.089006 
	C253.225357,18.888147 256.668335,20.962103 260.029907,21.069456 
	C260.350677,21.079702 260.955444,21.682705 260.920929,21.943283 
	C260.103241,28.114029 265.995209,29.802689 268.260071,33.669010 
	C269.808289,36.312046 274.996338,37.068867 273.392853,41.764969 
	C273.201630,42.324986 275.343384,44.554085 276.000610,44.390438 
	C280.423401,43.289234 280.477570,49.555466 284.342712,49.101376 
	C284.514496,49.081192 284.973236,49.653633 284.915802,49.800648 
	C283.098389,54.454262 287.083679,58.466972 289.203491,59.355545 
	C294.225006,61.460461 292.232025,70.567574 299.879883,69.092194 
	C301.328003,68.812843 300.964050,70.428680 300.983459,71.317169 
	C301.087006,76.057602 304.463470,78.252838 307.425781,81.304718 
	C309.335876,83.272545 313.528961,84.283867 313.098083,88.577339 
	C312.880402,90.746819 315.264252,91.774513 316.639526,93.078979 
	C320.709351,96.939178 322.934479,102.175079 328.141998,105.467392 
	C332.163940,108.010155 333.554779,114.381241 337.175964,117.984428 
	C340.834412,121.624680 342.681519,126.793205 347.777954,129.502869 
	C349.087463,130.199112 353.304657,132.184097 353.038849,135.886444 
	C358.703491,136.372818 356.045197,142.740448 359.747375,145.228378 
	C363.111267,147.488922 364.530487,152.629959 367.886017,154.920441 
	C370.682617,156.829437 372.413666,160.118530 375.885071,161.049652 
	C376.275574,161.154388 376.925903,161.707382 376.883392,161.806107 
	C374.974396,166.240601 379.766571,167.537140 380.731689,170.369766 
	C381.833374,173.603241 385.200073,173.615646 386.654816,176.526016 
	C387.967010,179.151184 390.729492,182.256927 393.220703,183.831299 
	C398.698853,187.293365 397.562256,195.916214 404.787872,197.456284 
	C405.515961,203.527527 410.824463,206.458862 414.020447,210.829056 
	C416.857727,214.708740 421.436340,217.431000 423.676392,221.285217 
	C425.274475,224.034760 430.117340,224.457169 429.156891,228.958893 
	C428.987152,229.754242 430.634064,231.780655 431.485321,231.806351 
	C435.456390,231.926270 436.627747,236.258850 440.018951,237.057281 
	C440.300568,237.123596 440.773865,237.403809 440.760223,237.546524 
	C440.393524,241.373245 441.824127,244.053848 444.863373,246.615219 
	C447.134521,248.529266 448.901764,251.190781 451.404633,252.984802 
	C453.416962,254.427231 453.577637,257.967987 456.945038,257.836182 
	C456.583588,263.162445 460.637299,260.602020 462.805969,260.911438 
	C465.957245,261.361053 469.931976,259.673981 469.191925,265.766876 
	C468.855225,268.538574 473.395416,269.235992 474.066650,272.358215 
	C474.271881,273.312775 474.821503,273.883301 473.906891,274.646790 
	C471.377045,276.758575 469.132599,279.161469 466.439514,281.143463 
	C464.541565,282.540253 461.871338,284.917175 461.460663,286.196960 
	C460.504120,289.178009 459.553864,289.214996 457.106415,288.691650 
	C455.310272,288.307587 453.840027,289.805817 452.709900,290.903656 
	C449.782928,293.746826 446.304443,296.199432 444.874084,300.317017 
	C444.787140,300.567230 444.343903,300.949890 444.239136,300.900970 
	C438.968994,298.440948 437.580444,304.540558 433.909302,305.573181 
	C433.454224,305.701202 432.772980,305.818268 432.627869,306.136871 
	C430.286682,311.277039 424.714569,312.627930 421.050873,316.170166 
	C419.815399,317.364716 418.073578,316.855286 416.937775,318.408081 
	C414.523529,321.708771 411.478699,324.549133 409.075928,327.856781 
	C408.301758,328.922546 407.661682,328.990173 406.747772,328.985260 
	C401.730408,328.958374 397.873688,330.491699 396.948730,336.090790 
	C392.945038,335.009827 393.990997,343.232147 388.745117,340.443634 
	C387.203674,339.624207 385.867645,344.603668 383.172607,341.693176 
	C380.393524,338.691956 376.868500,336.193237 375.692108,332.050018 
	C375.153748,330.154022 377.613129,328.701782 377.069794,326.428101 
	C376.541382,324.216705 378.007721,321.070068 373.920563,320.960602 
	C374.430084,316.979797 367.880859,317.533966 368.842529,313.026703 
	C369.011688,312.233582 367.354553,310.205841 366.504669,310.184448 
	C362.523071,310.084106 361.369843,305.717651 357.966797,304.940979 
	C357.686340,304.876984 357.215729,304.586731 357.230591,304.442657 
	C357.627014,300.603973 356.321136,297.764618 353.162842,295.322662 
	C352.413757,294.743500 352.566620,292.761871 350.554504,292.972992 
	C348.676788,293.169983 348.876343,291.679718 349.036133,290.607056 
	C349.366333,288.390747 347.961029,286.418915 346.521423,286.244537 
	C342.690094,285.780518 341.331970,281.874420 338.016693,280.931396 
	C337.637665,280.823578 337.029846,280.195251 337.090973,280.056793 
	C339.207611,275.262787 334.481659,271.249756 332.769135,270.538483 
	C327.769287,268.461731 329.641144,259.240906 321.967438,260.913940 
	C320.828064,261.162354 320.919067,259.816162 321.024780,259.066925 
	C321.754303,253.896576 317.523804,252.019897 314.884674,248.833786 
	C312.898254,246.435654 309.020660,245.582794 308.816559,241.348709 
	C308.703400,239.000961 306.646698,237.010376 303.673645,236.979248 
	C302.761902,236.969711 301.022522,237.356232 301.153595,236.237793 
	C301.622314,232.238968 300.060974,229.218872 296.932587,227.235901 
	C294.248810,225.534775 293.757111,221.636154 290.241364,220.997849 
	C289.477325,220.859131 289.249115,220.512878 288.990387,219.803452 
	C286.446716,212.828125 279.832428,205.709991 274.280548,200.632446 
	C272.611908,199.106369 270.446167,196.099716 268.772186,194.943161 
	C263.468506,191.278824 264.852875,182.732758 257.697052,180.839813 
	C257.060547,180.671463 256.871826,178.907150 256.424652,177.906631 
	C255.469498,175.769516 254.173553,173.627762 251.866394,173.140549 
	C250.070801,172.761337 248.646393,172.874496 248.966721,170.454453 
	C249.162537,168.975037 248.017883,169.044510 246.995224,168.982513 
	C246.257050,168.937790 244.961151,169.264236 245.101303,168.065475 
	C245.822876,161.894257 238.713974,160.026840 237.840576,156.448578 
	C236.399612,150.544983 229.452011,150.804855 228.770645,145.464462 
	C224.735977,146.626648 225.858231,140.023834 221.961487,140.926361 
	C221.755371,140.974106 221.218643,140.590942 221.232254,140.445480 
	C221.589310,136.629120 218.925110,134.349777 217.367798,131.360184 
	C214.503876,125.862297 209.579590,122.287407 206.581009,117.136017 
	C206.369034,116.771873 205.651184,116.300827 205.416214,116.410431 
	C200.276321,118.807884 201.053543,115.145012 200.981293,112.198166 
	C200.894226,108.648438 196.286331,108.307098 195.761642,105.024544 
	C193.055679,105.485786 193.181305,103.836823 192.887238,101.824135 
	C192.489975,99.105240 190.823227,97.063416 187.639740,96.990929 
	C186.418488,96.963127 184.757126,97.487045 185.002518,95.224030 
	C185.569214,89.997505 182.366653,87.232498 178.337463,84.994759 
	C175.774994,83.571617 176.166962,79.086250 178.297821,76.875290 
	C180.981903,74.090324 184.515289,72.693985 187.431671,70.335495 
	C188.426132,69.531265 189.130920,69.075638 189.011154,67.763626 
	C188.867630,66.191597 188.828537,64.654053 191.194733,64.989349 
	C192.879379,65.228058 193.142654,64.160942 192.994827,62.841503 
	C192.810089,61.192551 193.940872,60.463455 195.056870,61.071140 
	C199.649063,63.571686 201.387939,59.488289 204.331451,57.245499 
z"/>
<path fill="#FFFFFF" opacity="1.000000" stroke="none" 
	d="
M50.051525,264.435181 
	C51.785362,262.785583 53.443970,261.589539 53.033688,259.181122 
	C52.932552,258.587463 53.069195,257.478912 53.384544,257.357971 
	C61.857563,254.108124 64.758041,245.068024 71.466324,240.002609 
	C72.194473,239.452789 72.992088,238.799561 73.016159,237.601059 
	C73.061775,235.330658 72.022850,232.169113 76.353096,232.895798 
	C77.012894,227.346756 85.980766,228.347015 85.370705,221.501099 
	C85.309044,220.809235 88.351547,218.755676 89.186447,218.393265 
	C93.389191,216.568787 92.632164,213.372269 93.263237,210.124359 
	C93.596527,208.409042 97.982216,208.722031 97.441017,205.278397 
	C100.416275,205.574936 101.239090,203.801682 101.515396,201.285385 
	C101.529015,201.161392 104.182648,200.788513 104.646362,201.339691 
	C107.780113,205.064468 110.708740,208.641022 116.166641,209.380386 
	C117.167694,209.515991 119.701385,212.401932 120.582710,213.771591 
	C123.523918,218.342499 127.767441,221.756500 131.942307,223.887863 
	C139.251099,227.619125 143.449265,234.580490 150.115723,238.761383 
	C151.779984,239.805145 152.958435,241.453400 155.259567,241.050522 
	C155.768066,240.961502 156.690628,241.315033 156.900314,241.729202 
	C160.216721,248.279648 166.279373,252.572403 172.015213,255.869980 
	C178.925461,259.842743 183.187119,266.442566 189.795013,270.429718 
	C191.576340,271.504547 192.752792,273.568054 195.293442,273.020020 
	C195.946365,272.879181 196.600159,273.032135 196.950989,273.743347 
	C200.202103,280.333832 206.306808,284.587524 212.039108,287.903564 
	C219.078384,291.975677 223.472412,298.680359 230.184464,302.796539 
	C231.690277,303.719971 232.679459,305.416351 234.833740,305.030487 
	C235.585663,304.895752 236.465851,304.804657 236.960739,305.777924 
	C240.277908,312.301483 246.318466,316.646393 252.064545,319.927246 
	C259.143341,323.969025 263.487427,330.722107 270.211304,334.825714 
	C271.722534,335.748047 272.731689,337.407501 274.872162,337.030457 
	C275.622772,336.898254 276.401855,336.871735 276.980530,337.804504 
	C280.829102,344.008301 289.580933,350.760925 295.579285,353.152802 
	C297.532135,353.931488 299.686951,356.480469 300.513641,357.739441 
	C303.496155,362.281525 307.727295,365.721649 311.886414,367.831421 
	C319.215515,371.549225 323.392151,378.531891 330.063812,382.702057 
	C331.715363,383.734344 332.838562,385.510345 335.183685,385.048859 
	C335.696198,384.948029 336.646545,385.268311 336.850159,385.670593 
	C340.242188,392.372223 347.026764,395.623566 352.323517,400.281525 
	C353.601837,401.405701 357.906158,405.605927 361.232574,400.507263 
	C362.359955,398.779297 368.004272,401.221222 368.980560,403.646790 
	C369.236664,404.283020 369.410797,404.660156 370.092255,405.001770 
	C374.266022,407.094360 374.132141,410.581085 370.128784,413.453857 
	C366.313385,416.191772 364.762604,421.086365 360.784790,423.771698 
	C359.539276,424.612488 361.056335,425.456787 361.055756,426.365265 
	C361.054657,428.086243 360.927124,429.414215 358.719391,428.990906 
	C356.038788,428.476959 353.690979,430.691345 353.650024,432.068665 
	C353.459564,438.475311 343.987030,437.926941 344.716370,444.633484 
	C339.909393,446.077942 338.910004,451.651947 334.732452,453.830627 
	C333.341980,454.555817 332.797455,455.956116 332.975098,457.635529 
	C333.170776,459.485535 331.081818,460.475952 330.764221,461.182892 
	C328.658234,465.870605 321.291718,465.306976 321.049225,471.256317 
	C320.977661,473.012177 319.654114,472.545776 318.916168,473.140472 
	C316.078766,475.427155 312.289246,477.229370 312.980316,481.977692 
	C313.236267,483.736267 313.152557,485.382385 310.552979,485.025330 
	C309.159119,484.833862 308.919037,485.806396 309.005646,486.915955 
	C309.112335,488.282349 308.761566,489.297668 307.136353,488.979553 
	C304.561096,488.475494 303.094391,490.094116 301.777618,491.786835 
	C300.137970,493.894592 298.516541,494.008606 296.675476,492.175293 
	C294.938721,490.445923 293.444611,488.867401 290.456573,488.807373 
	C287.733704,488.752686 289.049255,485.628723 288.689545,483.905090 
	C288.141907,481.281433 291.575378,477.056580 285.577179,476.831085 
	C284.305481,472.105011 279.320557,470.831909 276.717407,467.320984 
	C275.402527,465.547516 273.951416,463.692047 271.180206,464.950989 
	C270.696014,465.170959 269.942352,464.797882 269.313141,464.698700 
	C270.888306,460.482513 263.630096,461.877838 264.946991,457.825714 
	C259.065338,456.610138 257.841461,447.770355 250.459747,448.963898 
	C250.076218,449.025879 249.347549,448.758362 249.244019,448.474731 
	C247.814713,444.558899 244.728958,442.559052 241.414597,440.323486 
	C240.204041,439.506958 238.419418,437.769562 237.524521,436.502045 
	C235.506271,433.643372 233.780212,432.511993 230.212997,432.770782 
	C228.410126,432.901550 229.187851,427.701630 225.421112,428.703735 
	C224.002502,423.439209 218.350662,422.100494 215.542618,418.093170 
	C214.800079,417.033539 213.931534,415.827362 211.931976,416.858215 
	C210.406158,417.644836 209.143051,417.055298 208.823776,414.580688 
	C208.541534,412.393127 203.851959,412.850525 204.565338,409.253387 
	C200.048477,408.353271 198.113724,404.258698 195.036179,401.575104 
	C194.401779,401.021912 194.114975,400.068909 192.667786,400.688507 
	C190.792938,401.491150 189.378860,401.454193 188.667557,398.395569 
	C188.263458,396.657928 185.230743,394.018311 183.756943,393.419617 
	C180.556519,392.119476 179.697647,388.934998 176.971878,387.415802 
	C175.016861,386.326202 173.915222,383.816559 171.000870,384.951080 
	C170.534241,385.132721 169.437851,384.861176 169.285385,384.513153 
	C166.345596,377.802399 159.212250,375.103333 155.095093,369.560394 
	C154.055908,368.161316 153.071716,368.623169 151.768906,368.930939 
	C150.275177,369.283813 149.262009,369.111420 148.833755,366.881042 
	C148.353378,364.379150 145.171219,362.212860 143.718338,361.474884 
	C140.754944,359.969666 139.733521,356.934662 136.986069,355.431671 
	C135.033661,354.363525 133.972137,351.772736 131.027863,352.951416 
	C130.559235,353.139008 129.450089,352.880371 129.298965,352.536865 
	C126.350815,345.835754 119.249451,343.105988 115.112625,337.580750 
	C114.091469,336.216888 113.126778,336.579926 111.792908,336.921936 
	C110.347221,337.292603 109.252380,337.182220 108.836777,334.906403 
	C108.377182,332.389679 105.303764,330.553406 103.687691,329.440857 
	C100.978401,327.575684 98.883957,323.041412 93.921188,324.756500 
	C92.600922,325.212769 93.865257,319.812439 90.039055,320.955109 
	C90.201935,317.373322 85.617767,317.774841 84.865082,314.630005 
	C84.317566,312.342316 80.167732,312.683838 80.022446,309.509338 
	C76.042671,309.808777 73.241035,307.708588 70.692589,305.006592 
	C68.844200,303.046814 66.988144,301.079193 64.981682,299.287323 
	C62.315334,296.906128 60.853374,292.796631 56.320171,293.008331 
	C54.391186,293.098419 53.755505,292.507690 52.621719,290.554932 
	C51.511166,288.642212 48.867905,286.791077 47.010529,284.896881 
	C44.847099,282.690582 41.914978,281.193634 40.548691,278.139069 
	C40.012348,276.940002 39.686398,275.917419 40.536446,274.976044 
	C42.961555,272.290375 45.748447,270.043549 45.319794,265.631561 
	C45.193962,264.336426 48.312626,265.540527 50.051525,264.435181 
z"/>
</svg>